<mxfile host="app.diagrams.net" agent="Mozilla/5.0 (Windows NT 10.0; Win64; x64) AppleWebKit/537.36 (KHTML, like Gecko) Chrome/140.0.0.0 Safari/537.36" version="28.2.5">
  <diagram name="Page-1" id="SbkQh6P1pwwvUsCbH3eH">
    <mxGraphModel grid="1" page="1" gridSize="10" guides="1" tooltips="1" connect="1" arrows="1" fold="1" pageScale="1" pageWidth="827" pageHeight="1169" math="0" shadow="0">
      <root>
        <mxCell id="0" />
        <mxCell id="1" parent="0" />
        <mxCell id="3cRnT4CYXjcnzyiLK5B0-7" style="edgeStyle=orthogonalEdgeStyle;rounded=0;orthogonalLoop=1;jettySize=auto;html=1;exitX=0.5;exitY=1;exitDx=0;exitDy=0;exitPerimeter=0;entryX=0.5;entryY=0;entryDx=0;entryDy=0;" edge="1" parent="1" source="3cRnT4CYXjcnzyiLK5B0-1" target="3cRnT4CYXjcnzyiLK5B0-5">
          <mxGeometry relative="1" as="geometry" />
        </mxCell>
        <object placeholders="1" c4Name="Borrower&#xa;" c4Type="Person" c4Description="Borrow Books, Renew time of borrowing Books, Review History, Search Books" label="&lt;font style=&quot;font-size: 16px&quot;&gt;&lt;b&gt;%c4Name%&lt;/b&gt;&lt;/font&gt;&lt;div&gt;[%c4Type%]&lt;/div&gt;&lt;br&gt;&lt;div&gt;&lt;font style=&quot;font-size: 11px&quot;&gt;&lt;font color=&quot;#cccccc&quot;&gt;%c4Description%&lt;/font&gt;&lt;/div&gt;" id="3cRnT4CYXjcnzyiLK5B0-1">
          <mxCell style="html=1;fontSize=11;dashed=0;whiteSpace=wrap;fillColor=#083F75;strokeColor=#06315C;fontColor=#ffffff;shape=mxgraph.c4.person2;align=center;metaEdit=1;points=[[0.5,0,0],[1,0.5,0],[1,0.75,0],[0.75,1,0],[0.5,1,0],[0.25,1,0],[0,0.75,0],[0,0.5,0]];resizable=0;" vertex="1" parent="1">
            <mxGeometry x="214" y="130" width="200" height="180" as="geometry" />
          </mxCell>
        </object>
        <mxCell id="3cRnT4CYXjcnzyiLK5B0-16" style="edgeStyle=orthogonalEdgeStyle;rounded=0;orthogonalLoop=1;jettySize=auto;html=1;exitX=0.5;exitY=0;exitDx=0;exitDy=0;exitPerimeter=0;entryX=0.5;entryY=1;entryDx=0;entryDy=0;" edge="1" parent="1" source="3cRnT4CYXjcnzyiLK5B0-2" target="3cRnT4CYXjcnzyiLK5B0-5">
          <mxGeometry relative="1" as="geometry" />
        </mxCell>
        <object placeholders="1" c4Name="Librarian" c4Type="Person" c4Description="Manage the book inventory, handle borrowing/returning requests, and track late fees" label="&lt;font style=&quot;font-size: 16px&quot;&gt;&lt;b&gt;%c4Name%&lt;/b&gt;&lt;/font&gt;&lt;div&gt;[%c4Type%]&lt;/div&gt;&lt;br&gt;&lt;div&gt;&lt;font style=&quot;font-size: 11px&quot;&gt;&lt;font color=&quot;#cccccc&quot;&gt;%c4Description%&lt;/font&gt;&lt;/div&gt;" id="3cRnT4CYXjcnzyiLK5B0-2">
          <mxCell style="html=1;fontSize=11;dashed=0;whiteSpace=wrap;fillColor=#083F75;strokeColor=#06315C;fontColor=#ffffff;shape=mxgraph.c4.person2;align=center;metaEdit=1;points=[[0.5,0,0],[1,0.5,0],[1,0.75,0],[0.75,1,0],[0.5,1,0],[0.25,1,0],[0,0.75,0],[0,0.5,0]];resizable=0;" vertex="1" parent="1">
            <mxGeometry x="340" y="740" width="200" height="180" as="geometry" />
          </mxCell>
        </object>
        <mxCell id="3cRnT4CYXjcnzyiLK5B0-13" style="edgeStyle=orthogonalEdgeStyle;rounded=0;orthogonalLoop=1;jettySize=auto;html=1;exitX=0.75;exitY=0;exitDx=0;exitDy=0;exitPerimeter=0;entryX=0.25;entryY=0;entryDx=0;entryDy=0;" edge="1" parent="1" source="3cRnT4CYXjcnzyiLK5B0-4" target="3cRnT4CYXjcnzyiLK5B0-5">
          <mxGeometry relative="1" as="geometry" />
        </mxCell>
        <object placeholders="1" c4Name="Payment gateway" c4Type="External System" c4Description="" label="&lt;font style=&quot;font-size: 16px&quot;&gt;&lt;b&gt;%c4Name%&lt;/b&gt;&lt;/font&gt;&lt;div&gt;[%c4Type%]&lt;/div&gt;&lt;br&gt;&lt;div&gt;&lt;font style=&quot;font-size: 11px&quot;&gt;&lt;font color=&quot;#cccccc&quot;&gt;%c4Description%&lt;/font&gt;&lt;/div&gt;" id="3cRnT4CYXjcnzyiLK5B0-4">
          <mxCell style="rounded=1;whiteSpace=wrap;html=1;labelBackgroundColor=none;fillColor=#8C8496;fontColor=#ffffff;align=center;arcSize=10;strokeColor=#736782;metaEdit=1;resizable=0;points=[[0.25,0,0],[0.5,0,0],[0.75,0,0],[1,0.25,0],[1,0.5,0],[1,0.75,0],[0.75,1,0],[0.5,1,0],[0.25,1,0],[0,0.75,0],[0,0.5,0],[0,0.25,0]];" vertex="1" parent="1">
            <mxGeometry x="-50" y="525" width="240" height="120" as="geometry" />
          </mxCell>
        </object>
        <mxCell id="3cRnT4CYXjcnzyiLK5B0-5" value="Book Management System&amp;nbsp;" style="rounded=0;whiteSpace=wrap;html=1;fillColor=#1ba1e2;fontColor=#ffffff;strokeColor=#006EAF;" vertex="1" parent="1">
          <mxGeometry x="324" y="450" width="180" height="60" as="geometry" />
        </mxCell>
        <object placeholders="1" c4Name="Email Service" c4Type="External System" c4Description="" label="&lt;font style=&quot;font-size: 16px&quot;&gt;&lt;b&gt;%c4Name%&lt;/b&gt;&lt;/font&gt;&lt;div&gt;[%c4Type%]&lt;/div&gt;&lt;br&gt;&lt;div&gt;&lt;font style=&quot;font-size: 11px&quot;&gt;&lt;font color=&quot;#cccccc&quot;&gt;%c4Description%&lt;/font&gt;&lt;/div&gt;" id="3cRnT4CYXjcnzyiLK5B0-6">
          <mxCell style="rounded=1;whiteSpace=wrap;html=1;labelBackgroundColor=none;fillColor=#8C8496;fontColor=#ffffff;align=center;arcSize=10;strokeColor=#736782;metaEdit=1;resizable=0;points=[[0.25,0,0],[0.5,0,0],[0.75,0,0],[1,0.25,0],[1,0.5,0],[1,0.75,0],[0.75,1,0],[0.5,1,0],[0.25,1,0],[0,0.75,0],[0,0.5,0],[0,0.25,0]];" vertex="1" parent="1">
            <mxGeometry x="670" y="420" width="240" height="120" as="geometry" />
          </mxCell>
        </object>
        <mxCell id="3cRnT4CYXjcnzyiLK5B0-8" value="Search, Borrow books&amp;nbsp;" style="text;html=1;align=center;verticalAlign=middle;resizable=0;points=[];autosize=1;strokeColor=none;fillColor=none;" vertex="1" parent="1">
          <mxGeometry x="329" y="325" width="140" height="30" as="geometry" />
        </mxCell>
        <mxCell id="3cRnT4CYXjcnzyiLK5B0-9" style="edgeStyle=orthogonalEdgeStyle;rounded=0;orthogonalLoop=1;jettySize=auto;html=1;exitX=0;exitY=0.75;exitDx=0;exitDy=0;exitPerimeter=0;entryX=0.5;entryY=0;entryDx=0;entryDy=0;entryPerimeter=0;" edge="1" parent="1" source="3cRnT4CYXjcnzyiLK5B0-1" target="3cRnT4CYXjcnzyiLK5B0-4">
          <mxGeometry relative="1" as="geometry" />
        </mxCell>
        <mxCell id="3cRnT4CYXjcnzyiLK5B0-10" value="Pay in" style="text;html=1;align=center;verticalAlign=middle;resizable=0;points=[];autosize=1;strokeColor=none;fillColor=none;" vertex="1" parent="1">
          <mxGeometry x="-10" y="360" width="60" height="30" as="geometry" />
        </mxCell>
        <mxCell id="3cRnT4CYXjcnzyiLK5B0-11" style="edgeStyle=orthogonalEdgeStyle;rounded=0;orthogonalLoop=1;jettySize=auto;html=1;exitX=0;exitY=0.5;exitDx=0;exitDy=0;entryX=1;entryY=0.5;entryDx=0;entryDy=0;entryPerimeter=0;" edge="1" parent="1" source="3cRnT4CYXjcnzyiLK5B0-5" target="3cRnT4CYXjcnzyiLK5B0-4">
          <mxGeometry relative="1" as="geometry" />
        </mxCell>
        <mxCell id="3cRnT4CYXjcnzyiLK5B0-12" value="delegate the payment" style="text;html=1;align=center;verticalAlign=middle;resizable=0;points=[];autosize=1;strokeColor=none;fillColor=none;" vertex="1" parent="1">
          <mxGeometry x="240" y="578" width="140" height="30" as="geometry" />
        </mxCell>
        <mxCell id="3cRnT4CYXjcnzyiLK5B0-14" value="return info about payment" style="text;html=1;align=center;verticalAlign=middle;resizable=0;points=[];autosize=1;strokeColor=none;fillColor=none;" vertex="1" parent="1">
          <mxGeometry x="90" y="388" width="160" height="30" as="geometry" />
        </mxCell>
        <mxCell id="3cRnT4CYXjcnzyiLK5B0-15" style="edgeStyle=orthogonalEdgeStyle;rounded=0;orthogonalLoop=1;jettySize=auto;html=1;exitX=1;exitY=0.5;exitDx=0;exitDy=0;entryX=0;entryY=0.5;entryDx=0;entryDy=0;entryPerimeter=0;" edge="1" parent="1" source="3cRnT4CYXjcnzyiLK5B0-5" target="3cRnT4CYXjcnzyiLK5B0-6">
          <mxGeometry relative="1" as="geometry" />
        </mxCell>
        <mxCell id="3cRnT4CYXjcnzyiLK5B0-17" value="Manage book inventory,&lt;div&gt;&amp;nbsp;handle borrowing, track late fee&lt;/div&gt;" style="text;html=1;align=center;verticalAlign=middle;resizable=0;points=[];autosize=1;strokeColor=none;fillColor=none;" vertex="1" parent="1">
          <mxGeometry x="440" y="690" width="190" height="40" as="geometry" />
        </mxCell>
        <mxCell id="3cRnT4CYXjcnzyiLK5B0-18" value="email about info&amp;nbsp;&lt;div&gt;borrower detail&lt;/div&gt;" style="text;html=1;align=center;verticalAlign=middle;resizable=0;points=[];autosize=1;strokeColor=none;fillColor=none;" vertex="1" parent="1">
          <mxGeometry x="520" y="430" width="110" height="40" as="geometry" />
        </mxCell>
        <mxCell id="3cRnT4CYXjcnzyiLK5B0-19" style="edgeStyle=orthogonalEdgeStyle;rounded=0;orthogonalLoop=1;jettySize=auto;html=1;exitX=0.5;exitY=0;exitDx=0;exitDy=0;exitPerimeter=0;entryX=1;entryY=0.75;entryDx=0;entryDy=0;entryPerimeter=0;" edge="1" parent="1" source="3cRnT4CYXjcnzyiLK5B0-6" target="3cRnT4CYXjcnzyiLK5B0-1">
          <mxGeometry relative="1" as="geometry" />
        </mxCell>
        <mxCell id="3cRnT4CYXjcnzyiLK5B0-20" value="email about the date/time return&lt;div&gt;&amp;nbsp;and detail about book&lt;/div&gt;" style="text;html=1;align=center;verticalAlign=middle;resizable=0;points=[];autosize=1;strokeColor=none;fillColor=none;" vertex="1" parent="1">
          <mxGeometry x="590" y="330" width="190" height="40" as="geometry" />
        </mxCell>
        <mxCell id="3cRnT4CYXjcnzyiLK5B0-21" style="edgeStyle=orthogonalEdgeStyle;rounded=0;orthogonalLoop=1;jettySize=auto;html=1;exitX=0.5;exitY=1;exitDx=0;exitDy=0;exitPerimeter=0;entryX=1;entryY=0.75;entryDx=0;entryDy=0;entryPerimeter=0;" edge="1" parent="1" source="3cRnT4CYXjcnzyiLK5B0-6" target="3cRnT4CYXjcnzyiLK5B0-2">
          <mxGeometry relative="1" as="geometry" />
        </mxCell>
        <mxCell id="3cRnT4CYXjcnzyiLK5B0-22" value="info about borrower and&amp;nbsp;&lt;div&gt;books had borrowed detail&lt;/div&gt;" style="text;html=1;align=center;verticalAlign=middle;resizable=0;points=[];autosize=1;strokeColor=none;fillColor=none;" vertex="1" parent="1">
          <mxGeometry x="605" y="823" width="160" height="40" as="geometry" />
        </mxCell>
        <mxCell id="wql6y1tlskQ7mDR_W4HE-1" value="" style="group;labelBorderColor=none;labelBackgroundColor=none;fontFamily=Times New Roman;" vertex="1" connectable="0" parent="1">
          <mxGeometry x="40" y="770" width="170" height="240" as="geometry" />
        </mxCell>
        <mxCell id="wql6y1tlskQ7mDR_W4HE-2" value="&lt;font style=&quot;font-size: 22px;&quot;&gt;Legend&lt;/font&gt;" style="rounded=0;whiteSpace=wrap;html=1;align=left;gradientColor=none;labelBorderColor=none;fontFamily=Times New Roman;" vertex="1" parent="wql6y1tlskQ7mDR_W4HE-1">
          <mxGeometry width="170" height="48" as="geometry" />
        </mxCell>
        <mxCell id="wql6y1tlskQ7mDR_W4HE-3" value="&lt;font style=&quot;font-size: 22px; color: rgb(255, 255, 255);&quot;&gt;Person&lt;/font&gt;" style="rounded=0;whiteSpace=wrap;html=1;align=center;gradientColor=none;fillColor=#0D427E;labelBorderColor=none;fontFamily=Times New Roman;" vertex="1" parent="wql6y1tlskQ7mDR_W4HE-1">
          <mxGeometry y="48" width="170" height="48" as="geometry" />
        </mxCell>
        <mxCell id="wql6y1tlskQ7mDR_W4HE-4" value="&lt;font style=&quot;font-size: 22px;&quot;&gt;System&lt;span style=&quot;white-space: pre;&quot;&gt;&#x9;&lt;/span&gt;&lt;/font&gt;" style="rounded=0;whiteSpace=wrap;html=1;align=center;fillColor=#0050ef;fontColor=#ffffff;strokeColor=#001DBC;labelBorderColor=none;fontFamily=Times New Roman;" vertex="1" parent="wql6y1tlskQ7mDR_W4HE-1">
          <mxGeometry y="96" width="170" height="48" as="geometry" />
        </mxCell>
        <mxCell id="wql6y1tlskQ7mDR_W4HE-6" value="&lt;font style=&quot;font-size: 22px;&quot;&gt;External system&lt;/font&gt;" style="rounded=0;whiteSpace=wrap;html=1;align=center;fillColor=#bac8d3;strokeColor=#23445d;labelBorderColor=none;fontFamily=Times New Roman;" vertex="1" parent="wql6y1tlskQ7mDR_W4HE-1">
          <mxGeometry y="144" width="170" height="48" as="geometry" />
        </mxCell>
      </root>
    </mxGraphModel>
  </diagram>
</mxfile>
